<?xml version="1.0" standalone="no"?>
<!DOCTYPE svg PUBLIC "-//W3C//DTD SVG 20010904//EN"
 "http://www.w3.org/TR/2001/REC-SVG-20010904/DTD/svg10.dtd">
<svg version="1.0" xmlns="http://www.w3.org/2000/svg"
 width="26.000000pt" height="26.000000pt" viewBox="0 0 26.000000 26.000000"
 preserveAspectRatio="xMidYMid meet">

<g transform="translate(0.000000,26.000000) scale(0.100000,-0.100000)"
fill="#000000" stroke="none">
<path d="M54 206 c-48 -48 -48 -104 0 -152 28 -28 42 -34 76 -34 60 0 110 50
110 110 0 34 -6 48 -34 76 -28 28 -42 34 -76 34 -34 0 -48 -6 -76 -34z m150
-17 c37 -41 31 -91 -15 -133 -41 -37 -91 -31 -133 15 -37 41 -31 91 15 133 41
37 91 31 133 -15z"/>
<path d="M80 173 c0 -3 7 -15 17 -25 15 -17 15 -19 -2 -38 -24 -26 -11 -39 15
-15 19 17 21 17 40 0 11 -10 23 -15 27 -12 3 4 -2 16 -12 27 -17 19 -17 21 0
40 24 26 11 39 -15 15 -19 -17 -21 -17 -38 -2 -19 18 -32 22 -32 10z"/>
</g>
</svg>
